# xmcd
#
# Track frame offsets:
#	150
#	16253
#	33070
#
# Disc length: 752 seconds
#
# Revision: 0
# Processed by: cddbd v1.5.2PL0 Copyright (c) Steve Scherf et al.
# Submitted via: audiograbber 1.83.01
#
DISCID=1302ee03
DTITLE=???? - ?????
DYEAR=1997
DGENRE=Rock
TTITLE0=?????
TTITLE1=?????????
TTITLE2=?????
EXTD=
EXTT0=
EXTT1=
EXTT2=
PLAYORDER=
